<svg version="1.1" id="Layer_1" xmlns="http://www.w3.org/2000/svg" xmlns:xlink="http://www.w3.org/1999/xlink" x="0px" y="0px"
	 width="100%" viewBox="0 0 1008 1024" enable-background="new 0 0 1008 1024" xml:space="preserve">
<path fill="#000000" opacity="1.000000" stroke="none" 
	d="
M458.516541,925.387512 
	C484.813080,930.310364 510.902069,933.189819 537.172180,935.195068 
	C564.627563,937.290771 592.061035,937.794739 619.507629,936.786804 
	C641.902649,935.964417 661.610962,927.525879 680.082520,914.681763 
	C729.355591,880.420105 759.168457,832.506775 779.696289,777.438416 
	C794.625916,737.388062 802.831848,695.811829 809.338440,653.835876 
	C815.147461,616.359985 821.300171,578.953186 828.097473,541.645386 
	C830.783142,526.904846 832.130981,511.977814 832.766541,497.002289 
	C834.483704,456.542114 835.322876,416.052460 834.508179,375.572693 
	C833.875488,344.138794 832.954895,312.657898 826.765503,281.636871 
	C823.840881,266.978882 818.419556,253.358780 811.713379,240.014267 
	C803.484314,223.639420 795.437256,207.189941 786.349487,191.262268 
	C776.119324,173.332382 763.664429,157.341034 748.327087,143.343964 
	C735.885559,131.989624 721.081909,127.691582 705.265564,127.476967 
	C675.269714,127.069939 645.310364,125.799484 615.342834,124.793816 
	C600.343506,124.290466 585.354187,124.509613 570.366150,124.150284 
	C557.299316,123.837021 544.778809,119.797066 531.941162,118.129578 
	C524.437439,117.154922 518.581421,113.738701 512.547058,110.050705 
	C511.900574,109.655586 511.311768,108.915154 511.035767,108.203270 
	C507.993500,100.356186 511.467224,88.574593 518.191345,83.276337 
	C521.087463,80.994331 524.078369,81.585190 527.203552,82.418907 
	C541.192871,86.150917 555.062256,90.549530 569.494568,92.185570 
	C580.226501,93.402130 591.035889,94.174637 601.884094,93.372002 
	C606.197693,93.052856 610.540222,93.046623 614.869934,93.036179 
	C640.369202,92.974648 665.874512,92.613533 691.365540,93.058060 
	C704.798340,93.292313 718.344116,93.513206 731.492065,97.243462 
	C750.939392,102.760948 764.647827,116.402321 778.623169,129.845444 
	C801.057739,151.425888 816.944885,177.455322 830.872253,204.941193 
	C838.560669,220.114365 845.696777,235.503784 851.588806,251.461395 
	C857.629150,267.820526 860.028687,284.991943 862.204468,302.122528 
	C867.252075,341.863037 867.285461,381.864075 866.922546,421.820587 
	C866.636780,453.277466 865.418030,484.731018 862.198486,516.063538 
	C859.578735,541.558228 855.076294,566.772705 850.953247,592.043274 
	C845.758484,623.881653 840.566956,655.720703 835.267395,687.541687 
	C827.242004,735.729736 814.767273,782.774841 793.460266,826.789978 
	C767.713989,879.975647 730.097839,923.177368 678.919678,953.769714 
	C666.816895,961.004456 653.332397,963.985779 639.621948,966.160767 
	C609.445923,970.947998 579.158508,968.985168 548.881287,967.602417 
	C526.742859,966.591309 504.655304,964.617126 482.810638,961.103333 
	C448.828217,955.637390 414.147522,952.103516 382.632751,936.991455 
	C347.045593,919.926697 311.263245,902.860352 279.421265,879.209045 
	C248.901917,856.540283 219.598404,832.316833 195.220413,802.784729 
	C176.026108,779.532349 160.078674,754.589905 154.483902,724.273010 
	C151.939682,710.486389 150.746368,696.543213 150.018402,682.578552 
	C147.804169,640.103271 149.031021,597.593506 150.244492,555.143372 
	C151.395599,514.875549 155.503052,474.771027 161.409225,434.858948 
	C165.528244,407.024048 168.997162,379.078461 176.721252,351.957245 
	C185.136856,322.408051 195.271698,293.375458 212.077469,267.440216 
	C227.200165,244.102371 243.795059,221.723190 259.494324,198.752823 
	C273.326355,178.514496 288.007996,158.901825 303.349731,139.821335 
	C317.225647,122.563919 331.505402,105.618103 346.591187,89.354507 
	C357.291138,77.819153 369.815033,69.643311 384.606354,64.447220 
	C396.701385,60.198322 408.543182,55.213028 421.029236,52.142967 
	C431.329437,49.610367 439.155975,55.374943 440.035034,66.001617 
	C440.850342,75.857544 438.578339,79.639282 429.421204,83.186836 
	C421.190552,86.375443 413.027649,89.818459 404.613403,92.437798 
	C384.584869,98.672653 369.839569,111.798576 356.008148,126.949028 
	C316.981628,169.697357 285.530304,218.064438 251.890671,264.848206 
	C222.598557,305.585693 206.790756,351.343658 198.285553,400.128326 
	C192.913513,430.941650 189.049881,461.943268 186.021973,493.090271 
	C180.724701,547.581787 180.377533,602.181396 181.519302,656.808044 
	C181.921890,676.069824 183.076950,695.368042 186.465775,714.461426 
	C191.054031,740.312561 202.947861,762.592590 219.460526,782.483398 
	C253.307404,823.254517 294.106445,855.538391 340.865906,880.354065 
	C353.227448,886.914429 365.738983,893.199036 378.000244,899.940186 
	C397.931488,910.898376 419.257965,917.596741 441.525269,921.669128 
	C447.086609,922.686157 452.581665,924.065735 458.516541,925.387512 
z"/>
<path fill="#000000" opacity="1.000000" stroke="none" 
	d="
M576.999512,791.254761 
	C563.012817,790.874084 549.513000,791.589355 536.028076,790.489502 
	C528.971741,789.913940 524.108704,785.139771 519.307739,781.244568 
	C515.719482,778.333252 518.659058,772.819946 520.035400,768.605103 
	C520.637024,766.762634 522.357727,765.337280 522.213196,762.965576 
	C504.243256,758.774536 498.767029,741.675354 488.157471,729.825256 
	C482.645294,723.668518 482.917999,716.916260 486.307892,709.855042 
	C488.196045,705.921814 491.027863,703.083313 495.001007,701.283264 
	C500.491333,698.795959 503.758148,699.332336 508.168152,703.436523 
	C515.533691,710.291260 520.393921,719.245483 527.453430,726.353149 
	C528.269043,727.174255 529.008545,728.070923 529.977417,729.148315 
	C537.777161,724.651611 546.208496,727.853821 554.350525,727.258118 
	C568.234741,726.242371 582.239319,726.868164 596.193298,726.809875 
	C611.025879,726.747925 625.858521,726.690979 640.691101,726.635132 
	C644.124390,726.622192 647.484497,727.105042 651.010925,726.638428 
	C655.916138,725.989319 660.545593,729.909546 661.159790,734.408630 
	C662.793091,746.371216 662.579956,758.283875 660.306091,770.189758 
	C659.159241,776.194336 656.040771,780.108521 650.296082,782.111938 
	C635.128418,787.401489 619.691650,791.310852 603.498352,791.356506 
	C594.832214,791.380981 586.165833,791.294067 576.999512,791.254761 
z"/>
<path fill="#000000" opacity="1.000000" stroke="none" 
	d="
M665.222290,625.431274 
	C655.160217,629.832092 645.047607,630.804382 634.566345,629.712830 
	C623.399536,628.549866 612.283569,629.260742 601.333984,631.815552 
	C596.170959,633.020203 592.810669,631.262207 590.301025,626.588806 
	C586.177979,618.911011 584.818726,610.999939 586.890564,602.509766 
	C588.268066,596.864746 590.409485,594.913757 596.341797,595.097717 
	C604.983948,595.365662 613.637207,595.766113 622.242126,596.574646 
	C628.202820,597.134644 634.113159,595.974243 640.101685,596.848999 
	C643.873169,597.399902 645.082336,594.300476 645.018860,590.862793 
	C644.908081,584.868103 644.881714,578.871277 644.712463,572.878418 
	C644.480774,564.674622 645.223938,556.628723 647.615906,548.720032 
	C651.228149,536.776917 654.588013,524.754211 659.539062,513.266968 
	C660.391907,511.288208 661.356934,509.327362 662.518250,507.517426 
	C666.805481,500.835876 674.843201,496.751068 679.407227,498.809601 
	C689.857117,503.522736 693.983215,510.814728 691.719177,520.424805 
	C689.343567,530.508179 684.758789,539.833191 681.751648,549.698730 
	C679.129150,558.302368 677.405884,566.841003 677.976196,576.095703 
	C678.729919,588.326416 679.175903,600.701660 676.024780,612.855896 
	C674.472656,618.842468 671.235657,622.971863 665.222290,625.431274 
z"/>
<path fill="#000000" opacity="1.000000" stroke="none" 
	d="
M476.903320,243.699478 
	C494.798126,241.235260 511.605560,235.442062 529.171936,233.519394 
	C538.032532,232.549576 545.101746,240.467194 543.887878,249.258316 
	C542.650757,258.218079 539.064575,263.213287 529.333801,265.583496 
	C508.009796,270.777618 486.903717,276.794525 465.185699,280.318115 
	C455.248138,281.930359 445.942017,285.503235 437.347504,290.863861 
	C433.961365,292.975861 430.547150,295.152924 426.891998,296.701447 
	C418.444519,300.280151 412.046844,305.927063 407.329742,313.789307 
	C404.373718,318.716339 400.802765,323.485291 393.946777,322.233337 
	C386.741425,320.917542 382.191681,316.078247 379.708405,309.547150 
	C374.861206,296.798889 378.887878,284.353516 390.798981,277.723297 
	C416.955109,263.163757 442.989258,248.094635 473.566254,244.436783 
	C474.549805,244.319122 475.506958,243.980591 476.903320,243.699478 
z"/>
<path fill="#000000" opacity="1.000000" stroke="none" 
	d="
M430.009399,441.197021 
	C420.843231,439.517334 412.496399,435.639648 402.988007,436.661591 
	C403.530640,431.934357 401.836975,427.563049 402.604706,422.897522 
	C403.536194,417.236755 406.255646,412.615326 409.532440,408.172394 
	C411.033630,406.136993 413.161255,406.190002 415.414276,406.515411 
	C432.069458,408.920868 448.807953,409.773224 465.639832,410.121735 
	C484.692413,410.516235 503.488342,408.565369 522.302246,406.194550 
	C529.168579,405.329315 535.958679,405.797394 542.358154,408.570862 
	C551.645020,412.595642 555.341614,426.169983 549.626221,434.607452 
	C547.311218,438.025055 543.553101,437.718445 540.184387,438.136139 
	C531.275330,439.240814 522.261169,439.677216 513.431580,441.204437 
	C497.582489,443.945831 481.681427,444.269104 465.710236,443.421265 
	C455.912994,442.901154 446.053589,444.191895 436.306763,442.366669 
	C434.347198,441.999695 432.386475,441.638763 430.009399,441.197021 
z"/>
<path fill="#000000" opacity="1.000000" stroke="none" 
	d="
M780.774902,298.095825 
	C794.131897,302.440735 797.881470,312.919891 798.985046,324.983093 
	C799.555298,331.216339 794.264038,335.348785 786.779053,334.867859 
	C784.275757,334.707031 781.850647,334.044647 779.646240,332.759979 
	C763.539185,323.372833 745.935730,319.754333 727.527649,319.243774 
	C724.863037,319.169861 722.183044,318.928802 719.534851,319.115234 
	C710.926147,319.721313 703.999939,316.315552 697.958374,310.525085 
	C690.230347,303.118347 681.893005,296.399078 672.484558,291.331970 
	C657.351746,283.181824 664.852295,264.945465 674.459839,259.526886 
	C676.903442,258.148712 679.136169,258.446533 681.481018,259.933899 
	C687.247192,263.591553 693.295471,266.833252 698.881470,270.740875 
	C713.567810,281.014557 730.757812,283.772186 747.643982,287.494965 
	C758.896301,289.975708 769.829407,293.430908 780.774902,298.095825 
z"/>
<path fill="#000000" opacity="1.000000" stroke="none" 
	d="
M705.402954,423.217163 
	C724.395935,414.636078 743.898865,412.280365 764.145142,414.601288 
	C777.748230,416.160675 784.620850,425.462830 781.364319,438.289154 
	C780.282288,442.550934 777.694092,444.637115 773.416382,445.360718 
	C765.813965,446.646667 758.141785,446.206482 750.508972,446.590576 
	C738.488220,447.195496 726.749634,449.199310 715.139038,452.295044 
	C709.538025,453.788422 703.792236,455.026947 699.106873,451.997620 
	C693.043945,440.483673 692.723389,430.422302 705.402954,423.217163 
z"/>
</svg>