<svg version="1.1" id="Layer_1" xmlns="http://www.w3.org/2000/svg" xmlns:xlink="http://www.w3.org/1999/xlink" x="0px" y="0px"
	 width="100%" viewBox="0 0 880 1024" enable-background="new 0 0 880 1024" xml:space="preserve">
<path fill="#000000" opacity="1.000000" stroke="none" 
	d="
M357.268585,791.850586 
	C312.534485,771.758911 272.095032,746.281189 240.000885,708.951294 
	C222.653259,688.773682 213.237228,665.912170 212.472000,638.918030 
	C211.611984,608.581421 211.492096,578.281677 212.960617,548.002319 
	C214.695709,512.226440 218.812057,476.645996 226.833069,441.719971 
	C233.148300,414.221527 244.639999,388.928497 261.735626,366.077393 
	C275.695251,347.418060 288.177643,327.644409 302.716522,309.391876 
	C312.676300,296.888092 322.843170,284.540436 334.014221,273.053558 
	C339.491699,267.421265 345.876404,263.470551 353.191620,260.790680 
	C361.163361,257.870270 369.015350,254.603012 377.306335,252.639847 
	C382.710846,251.360138 386.624481,253.445206 388.334412,258.424469 
	C390.289185,264.116730 388.437927,269.280304 383.444519,271.313446 
	C377.277679,273.824371 371.076569,276.278900 364.781067,278.439636 
	C354.683472,281.905334 346.974487,288.449280 339.850952,296.172760 
	C312.621155,325.695831 290.427551,359.002319 268.074554,392.122833 
	C253.811951,413.255829 246.757095,437.503937 242.347870,462.455658 
	C233.630142,511.789124 230.379715,561.553467 231.483154,611.589539 
	C231.798141,625.873352 232.273300,640.209961 234.723511,654.374390 
	C238.346741,675.319763 250.018478,691.665894 264.162262,706.689331 
	C287.570587,731.553528 315.995697,749.145813 345.940125,764.997131 
	C368.229065,776.795898 392.116119,781.834534 416.482117,785.559875 
	C438.397156,788.910645 460.593842,788.921936 482.696411,790.169434 
	C510.734253,791.751892 532.997009,780.993896 552.168640,762.073181 
	C571.701355,742.796082 585.233398,719.689453 594.711243,693.987183 
	C604.507812,667.420898 609.643127,639.855896 613.870117,612.005554 
	C616.912720,591.958618 620.542725,571.998657 624.079163,552.029724 
	C625.968933,541.358398 627.281677,530.581543 627.490112,519.813538 
	C628.092590,488.673615 628.363892,457.531281 627.757019,426.371765 
	C627.147095,395.058411 616.731079,367.151215 600.986816,340.701172 
	C595.518982,331.515198 589.688782,322.694672 582.611389,314.610870 
	C572.822815,303.430298 560.652527,298.354004 546.024780,298.346436 
	C524.695007,298.335419 503.363739,298.062134 482.035858,298.237885 
	C467.533447,298.357361 453.568268,295.027527 439.686310,291.760376 
	C429.595886,289.385590 429.415253,280.526520 434.018860,273.795349 
	C435.931335,270.999054 438.629700,269.916687 441.861450,271.046173 
	C461.933960,278.061554 482.745728,277.880524 503.598663,277.652191 
	C518.427429,277.489838 533.260742,277.782043 548.090820,277.685852 
	C563.679504,277.584747 576.733582,283.042694 588.382385,293.520782 
	C608.051331,311.213074 620.788757,333.367767 632.095459,356.786957 
	C642.918701,379.204834 646.061462,403.039307 647.444519,427.438324 
	C648.501953,446.094208 648.246338,464.745117 648.212830,483.400116 
	C648.155334,515.433167 644.613159,547.141541 639.079224,578.662354 
	C634.451843,605.019775 631.002441,631.585876 625.316040,657.754822 
	C616.910950,696.435791 603.493958,732.858704 577.488708,763.634766 
	C564.651123,778.827515 549.531311,791.267944 532.442139,801.241882 
	C522.911377,806.804260 511.967804,808.631897 501.188110,809.085327 
	C457.538269,810.921448 414.343903,807.231873 371.869751,796.605713 
	C367.039154,795.397217 362.367584,793.553040 357.268585,791.850586 
z"/>
<path fill="#000000" opacity="1.000000" stroke="none" 
	d="
M417.188507,651.440674 
	C422.940765,644.359009 426.787476,644.127136 432.376160,650.425110 
	C435.246521,653.659729 437.859497,657.122864 440.585144,660.485718 
	C442.125122,662.385803 443.515564,663.047974 446.438812,662.471863 
	C454.315399,660.919556 462.337555,662.783813 470.327087,662.715881 
	C485.456635,662.587402 500.569214,661.382080 515.716858,662.142700 
	C520.622375,662.389038 522.619507,664.161316 523.410706,669.185425 
	C524.252441,674.529846 523.857544,679.768494 523.367310,685.080750 
	C522.644897,692.910034 521.269409,694.850586 513.884949,697.247253 
	C499.730927,701.840942 485.190460,702.661865 470.449280,701.852661 
	C463.471161,701.469604 456.474121,701.406616 449.484253,701.273132 
	C446.591583,701.217896 443.965607,700.701965 441.492645,698.976257 
	C435.023834,694.462280 434.915985,694.349792 437.732605,686.869324 
	C437.958771,686.268738 438.091156,685.632874 438.301208,684.893250 
	C427.185181,680.652405 422.672760,670.278748 416.294037,661.739258 
	C413.934418,658.580322 415.569885,655.021667 417.188507,651.440674 
z"/>
<path fill="#000000" opacity="1.000000" stroke="none" 
	d="
M482.122742,604.239868 
	C477.766388,599.419006 476.839142,594.062866 477.640900,588.164551 
	C478.221619,583.892029 480.630768,582.032532 484.747620,582.165161 
	C492.398010,582.411499 500.090210,582.330933 507.678070,583.171326 
	C511.996796,583.649536 513.373840,582.229248 512.939270,578.460022 
	C511.284393,564.105469 515.210022,550.738342 520.048523,537.543884 
	C521.640930,533.201294 523.002625,528.639709 527.076843,525.715698 
	C530.186340,523.484070 533.246094,522.670166 536.694214,525.176636 
	C540.625244,528.034180 543.320435,531.467896 542.006226,536.557617 
	C540.927185,540.736389 539.550964,544.866333 537.953796,548.877563 
	C534.257935,558.159546 532.449463,567.589233 533.671326,577.664612 
	C534.183105,581.884521 533.543030,586.323486 532.910706,590.586243 
	C531.619324,599.291992 524.500427,604.290039 513.098755,603.788818 
	C503.918091,603.385193 494.824829,602.863525 485.801575,605.085083 
	C484.658783,605.366394 483.476257,605.169006 482.122742,604.239868 
z"/>
<path fill="#000000" opacity="1.000000" stroke="none" 
	d="
M446.246582,381.421722 
	C432.479218,385.595398 418.838715,388.511230 405.176727,391.474213 
	C390.544434,394.647614 376.999084,400.461121 367.903229,413.438019 
	C366.067444,416.057129 363.586884,417.831970 360.250702,416.931915 
	C356.142853,415.823669 353.241669,413.068207 351.856934,409.045380 
	C349.009644,400.773651 351.881287,393.676453 359.481781,389.054199 
	C378.938660,377.221497 399.891968,369.744171 422.483978,366.692535 
	C429.056183,365.804840 435.484161,363.888855 442.041473,362.839294 
	C447.204987,362.012848 450.749207,364.753296 451.977692,369.791473 
	C452.983551,373.916626 450.316864,379.681763 446.246582,381.421722 
z"/>
<path fill="#000000" opacity="1.000000" stroke="none" 
	d="
M369.279907,470.095825 
	C371.163971,467.008118 373.782288,467.623169 376.221313,467.947937 
	C395.425781,470.505280 414.598572,471.084534 433.828064,467.938171 
	C438.203583,467.222229 442.827271,467.445801 447.274292,467.878571 
	C454.113403,468.544128 458.162537,474.340942 456.961456,480.950745 
	C456.251373,484.858673 454.277374,486.969116 450.018860,487.393799 
	C432.007080,489.189880 414.098694,491.797546 395.855042,490.516754 
	C386.974731,489.893280 378.381500,488.580048 370.142822,485.419342 
	C368.596191,484.826050 368.145630,486.714386 366.470367,485.027283 
	C364.610229,480.269928 365.769257,475.209839 369.279907,470.095825 
z"/>
<path fill="#000000" opacity="1.000000" stroke="none" 
	d="
M528.111755,381.209229 
	C531.071045,377.695343 533.912109,377.382355 537.432617,379.944458 
	C549.359924,388.624664 562.750610,393.628571 577.314880,395.938690 
	C583.534851,396.925293 589.430115,399.424988 595.347412,401.686615 
	C602.076782,404.258545 605.822327,408.788055 606.823669,415.955688 
	C607.664307,421.971863 604.837891,425.266022 598.786621,424.589966 
	C597.808289,424.480652 596.735168,424.307495 595.917114,423.813782 
	C583.917786,416.572571 570.699097,414.803925 557.025757,415.048004 
	C552.146423,415.135071 548.506409,412.556335 545.100098,409.533051 
	C540.862366,405.771851 536.493347,402.205414 531.666504,399.203918 
	C523.473083,394.108917 522.577515,389.790588 528.111755,381.209229 
z"/>
<path fill="#000000" opacity="1.000000" stroke="none" 
	d="
M581.669556,471.992493 
	C586.217285,472.943542 590.710144,472.304749 593.983643,476.125793 
	C597.184875,479.862427 597.692688,483.802185 596.120789,488.168396 
	C594.691101,492.139435 590.955017,492.169250 587.759827,492.137878 
	C576.063965,492.023010 564.655701,493.762177 553.278870,496.302185 
	C546.838074,497.740173 541.745972,491.103455 544.034424,484.727295 
	C545.420898,480.864349 548.336670,478.553894 552.009521,476.999542 
	C561.358154,473.043182 571.215820,472.093048 581.669556,471.992493 
z"/>
</svg>